# Create 3D Model
mtllib golf_pole_NO_HOLE.mtl
o 円柱
v -0.010592 -0.000414 -0.038342
v -0.010592 2.582363 -0.038342
v 0.009955 -0.000414 -0.038342
v 0.009955 2.582363 -0.038342
v 0.027750 -0.000414 -0.028068
v 0.027750 2.582363 -0.028068
v 0.038024 -0.000414 -0.010274
v 0.038024 2.582363 -0.010274
v 0.038024 -0.000414 0.010274
v 0.038024 2.582363 0.010274
v 0.027750 -0.000414 0.028068
v 0.027750 2.582363 0.028068
v 0.009955 -0.000414 0.038342
v 0.009955 2.582363 0.038342
v -0.010592 -0.000414 0.038342
v -0.010592 2.582363 0.038342
v -0.028387 -0.000414 0.028068
v -0.028387 2.582363 0.028068
v -0.038661 -0.000414 0.010274
v -0.038661 2.582363 0.010274
v -0.038661 -0.000414 -0.010274
v -0.038661 2.582363 -0.010274
v -0.028387 -0.000414 -0.028068
v -0.028387 2.582363 -0.028068
v -0.010592 2.042295 -0.038342
v 0.009955 2.042295 -0.038342
v 0.027750 2.042295 -0.028068
v 0.038024 2.042235 -0.010274
v 0.038024 2.042235 0.010274
v 0.027750 2.042295 0.028068
v 0.009955 2.042295 0.038342
v -0.010592 2.042295 0.038342
v -0.028387 2.042295 0.028068
v -0.038661 2.042295 0.010274
v -0.038661 2.042295 -0.010274
v -0.028387 2.042295 -0.028068
v 0.138316 2.062385 -0.013431
v 0.226506 2.070971 -0.013431
v 0.314696 2.059438 -0.013431
v 0.402886 2.031951 -0.013431
v 0.491076 2.014453 -0.013431
v 0.579266 2.016358 -0.013431
v 0.667457 2.029751 -0.013431
v 0.667457 2.029751 0.013431
v 0.579266 2.016358 0.013431
v 0.491076 2.014453 0.013431
v 0.402886 2.031951 0.013431
v 0.314696 2.059438 0.013431
v 0.226506 2.070971 0.013431
v 0.138316 2.062385 0.013431
v 0.138316 2.601526 -0.013431
v 0.226506 2.610112 -0.013431
v 0.314696 2.598579 -0.013431
v 0.402886 2.571092 -0.013431
v 0.491076 2.553594 -0.013431
v 0.579266 2.555499 -0.013431
v 0.667457 2.568892 -0.013431
v 0.138316 2.601526 0.013431
v 0.226506 2.610112 0.013431
v 0.314696 2.598579 0.013431
v 0.402886 2.571092 0.013431
v 0.491076 2.553594 0.013431
v 0.579266 2.555499 0.013431
v 0.667457 2.568892 0.013431
v 0.009955 2.624106 -0.038342
v -0.010592 2.624106 -0.038342
v 0.027750 2.624106 -0.028068
v 0.038024 2.624106 -0.010274
v 0.038024 2.624106 0.010274
v 0.027750 2.624106 0.028068
v 0.009955 2.624106 0.038342
v -0.010592 2.624106 0.038342
v -0.028387 2.624106 0.028068
v -0.038661 2.624106 0.010274
v -0.038661 2.624106 -0.010274
v -0.028387 2.624106 -0.028068
v 0.009955 1.950269 -0.038342
v 0.009955 1.560132 -0.038342
v 0.009955 1.169996 -0.038342
v 0.009955 0.779859 -0.038342
v 0.009955 0.389723 -0.038342
v 0.027750 1.950269 -0.028068
v 0.027750 1.560132 -0.028068
v 0.027750 1.169996 -0.028068
v 0.027750 0.779859 -0.028068
v 0.027750 0.389723 -0.028068
v 0.038024 1.950256 -0.010274
v 0.038024 1.560122 -0.010274
v 0.038024 1.169988 -0.010274
v 0.038024 0.779854 -0.010274
v 0.038024 0.389720 -0.010274
v 0.038024 1.950256 0.010274
v 0.038024 1.560122 0.010274
v 0.038024 1.169988 0.010274
v 0.038024 0.779854 0.010274
v 0.038024 0.389720 0.010274
v 0.027750 1.950269 0.028068
v 0.027750 1.560132 0.028068
v 0.027750 1.169996 0.028068
v 0.027750 0.779859 0.028068
v 0.027750 0.389723 0.028068
v 0.009955 1.950269 0.038342
v 0.009955 1.560132 0.038342
v 0.009955 1.169996 0.038342
v 0.009955 0.779859 0.038342
v 0.009955 0.389723 0.038342
v -0.010592 1.950269 0.038342
v -0.010592 1.560132 0.038342
v -0.010592 1.169996 0.038342
v -0.010592 0.779859 0.038342
v -0.010592 0.389723 0.038342
v -0.028387 1.950269 0.028068
v -0.028387 1.560132 0.028068
v -0.028387 1.169996 0.028068
v -0.028387 0.779859 0.028068
v -0.028387 0.389723 0.028068
v -0.038661 1.950269 0.010274
v -0.038661 1.560132 0.010274
v -0.038661 1.169996 0.010274
v -0.038661 0.779859 0.010274
v -0.038661 0.389723 0.010274
v -0.038661 1.950269 -0.010274
v -0.038661 1.560132 -0.010274
v -0.038661 1.169996 -0.010274
v -0.038661 0.779859 -0.010274
v -0.038661 0.389723 -0.010274
v -0.028387 1.950269 -0.028068
v -0.028387 1.560132 -0.028068
v -0.028387 1.169996 -0.028068
v -0.028387 0.779859 -0.028068
v -0.028387 0.389723 -0.028068
v -0.010592 0.389723 -0.038342
v -0.010592 0.779859 -0.038342
v -0.010592 1.169996 -0.038342
v -0.010592 1.560132 -0.038342
v -0.010592 1.950269 -0.038342
vn -0.0000 -0.0000 -1.0000
vn 0.5000 -0.0000 -0.8660
vn 0.8660 -0.0000 -0.5000
vn 0.8660 -0.0000 0.5000
vn 0.5000 -0.0000 0.8660
vn -0.0000 -0.0000 1.0000
vn -0.5000 -0.0000 0.8660
vn -0.8660 -0.0000 0.5000
vn -1.0000 -0.0000 -0.0000
vn 1.0000 -0.0000 -0.0000
vn -0.8660 -0.0000 -0.5000
vn -0.5000 -0.0000 -0.8660
vn -0.0000 -1.0000 -0.0000
vn -0.0315 -0.0000 0.9995
vn -0.1877 0.9822 -0.0000
vn -0.0969 0.9953 -0.0000
vn 0.1297 0.9916 -0.0000
vn 0.2976 0.9547 -0.0000
vn 0.1946 0.9809 -0.0000
vn -0.0216 0.9998 -0.0000
vn -0.1501 0.9887 -0.0000
vn -0.0315 -0.0000 -0.9995
vn 0.1970 -0.9804 -0.0000
vn 0.0969 -0.9953 -0.0000
vn -0.1297 -0.9916 -0.0000
vn -0.2976 -0.9547 -0.0000
vn -0.1946 -0.9809 -0.0000
vn 0.0216 -0.9998 -0.0000
vn 0.1501 -0.9887 -0.0000
vn -0.0000 1.0000 -0.0000
vt 1.000000 0.906398
vt 1.000000 1.000000
vt 0.916667 1.000000
vt 0.916667 0.906398
vt 0.833333 1.000000
vt 0.833333 0.906398
vt 0.750000 1.000000
vt 0.750000 0.906398
vt 0.666667 0.906398
vt 0.666667 1.000000
vt 0.583333 1.000000
vt 0.583333 0.906398
vt 0.500000 1.000000
vt 0.500000 0.906398
vt 0.416667 1.000000
vt 0.416667 0.906398
vt 0.333333 1.000000
vt 0.333333 0.906398
vt 0.250000 1.000000
vt 0.250000 0.906398
vt 0.166667 1.000000
vt 0.166667 0.906398
vt 0.457846 0.130000
vt 0.490000 0.250000
vt 0.083333 1.000000
vt 0.083333 0.906398
vt 0.000000 1.000000
vt 0.000000 0.906398
vt 0.750000 0.490000
vt 0.870000 0.457846
vt 0.957846 0.370000
vt 0.990000 0.250000
vt 0.957846 0.130000
vt 0.870000 0.042154
vt 0.750000 0.010000
vt 0.630000 0.042154
vt 0.542154 0.130000
vt 0.510000 0.250000
vt 0.542154 0.370000
vt 0.630000 0.457846
vt 0.083333 0.838665
vt 0.000000 0.838665
vt 0.166667 0.838665
vt 0.250000 0.838665
vt 0.333333 0.838665
vt 0.416667 0.838665
vt 0.500000 0.838665
vt 0.583333 0.838665
vt 0.666667 0.838665
vt 0.750000 0.838665
vt 0.833333 0.838665
vt 0.916667 0.838665
vt 1.000000 0.838665
vt 0.750000 0.906398
vt 0.750000 1.000000
vt 0.666667 1.000000
vt 0.666667 0.906398
vt 0.666667 0.906398
vt 0.457846 0.130000
vt 0.750000 0.906398
vt 0.750000 0.906398
vt 0.370000 0.457846
vt 0.250000 0.490000
vt 0.130000 0.457846
vt 0.042154 0.370000
vt 0.010000 0.250000
vt 0.042154 0.130000
vt 0.130000 0.042154
vt 0.250000 0.010000
vt 0.370000 0.042154
vt 0.457846 0.370000
vt 1.000000 0.500000
vt 1.000000 0.567733
vt 0.916667 0.567733
vt 0.916667 0.500000
vt 1.000000 0.635466
vt 0.916667 0.635466
vt 1.000000 0.703199
vt 0.916667 0.703199
vt 1.000000 0.770932
vt 0.916667 0.770932
vt 0.833333 0.567733
vt 0.833333 0.500000
vt 0.833333 0.635466
vt 0.833333 0.703199
vt 0.833333 0.770932
vt 0.750000 0.567733
vt 0.750000 0.500000
vt 0.750000 0.635466
vt 0.750000 0.703199
vt 0.750000 0.770932
vt 0.666667 0.567733
vt 0.666667 0.500000
vt 0.666667 0.635466
vt 0.666667 0.703199
vt 0.666667 0.770932
vt 0.583333 0.567733
vt 0.583333 0.500000
vt 0.583333 0.635466
vt 0.583333 0.703199
vt 0.583333 0.770932
vt 0.500000 0.567733
vt 0.500000 0.500000
vt 0.500000 0.635466
vt 0.500000 0.703199
vt 0.500000 0.770932
vt 0.416667 0.567733
vt 0.416667 0.500000
vt 0.416667 0.635466
vt 0.416667 0.703199
vt 0.416667 0.770932
vt 0.333333 0.567733
vt 0.333333 0.500000
vt 0.333333 0.635466
vt 0.333333 0.703199
vt 0.333333 0.770932
vt 0.250000 0.567733
vt 0.250000 0.500000
vt 0.250000 0.635466
vt 0.250000 0.703199
vt 0.250000 0.770932
vt 0.166667 0.567733
vt 0.166667 0.500000
vt 0.166667 0.635466
vt 0.166667 0.703199
vt 0.166667 0.770932
vt 0.083333 0.567733
vt 0.083333 0.500000
vt 0.083333 0.635466
vt 0.083333 0.703199
vt 0.083333 0.770932
vt 0.000000 0.567733
vt 0.000000 0.500000
vt 0.000000 0.635466
vt 0.000000 0.703199
vt 0.000000 0.770932
s 0
usemtl pole
f 10/23/10 8/24/10 68/24/10 69/23/10
f 127/41/12 36/26/12 25/28/12 136/42/12
f 122/43/11 35/22/11 36/26/11 127/41/11
f 117/44/9 34/20/9 35/22/9 122/43/9
f 112/45/8 33/18/8 34/20/8 117/44/8
f 107/46/7 32/16/7 33/18/7 112/45/7
f 102/47/6 31/14/6 32/16/6 107/46/6
f 97/48/5 30/12/5 31/14/5 102/47/5
f 92/49/4 29/9/4 30/12/4 97/48/4
f 87/50/10 28/8/10 29/9/10 92/49/10
f 82/51/3 27/6/3 28/8/3 87/50/3
f 77/52/2 26/4/2 27/6/2 82/51/2
f 136/53/1 25/1/1 26/4/1 77/52/1
f 65/62/30 66/63/30 76/64/30 75/65/30 74/66/30 73/67/30 72/68/30 71/69/30 70/70/30 69/23/30 68/24/30 67/71/30
f 2/27/12 24/25/12 76/25/12 66/27/12
f 4/3/1 2/2/1 66/2/1 65/3/1
f 8/7/3 6/5/3 67/5/3 68/7/3
f 24/25/11 22/21/11 75/21/11 76/25/11
f 6/5/2 4/3/2 65/3/2 67/5/2
f 22/21/9 20/19/9 74/19/9 75/21/9
f 20/19/8 18/17/8 73/17/8 74/19/8
f 18/17/7 16/15/7 72/15/7 73/17/7
f 16/15/6 14/13/6 71/13/6 72/15/6
f 14/13/5 12/11/5 70/11/5 71/13/5
f 12/11/4 10/10/4 69/10/4 70/11/4
f 132/73/1 133/76/1 80/77/1 81/74/1
f 134/78/1 135/80/1 78/81/1 79/79/1
f 81/74/2 80/77/2 85/84/2 86/82/2
f 79/79/2 78/81/2 83/86/2 84/85/2
f 86/82/3 85/84/3 90/89/3 91/87/3
f 84/85/3 83/86/3 88/91/3 89/90/3
f 91/87/10 90/89/10 95/94/10 96/92/10
f 89/90/10 88/91/10 93/96/10 94/95/10
f 96/92/4 95/94/4 100/99/4 101/97/4
f 94/95/4 93/96/4 98/101/4 99/100/4
f 101/97/5 100/99/5 105/104/5 106/102/5
f 99/100/5 98/101/5 103/106/5 104/105/5
f 106/102/6 105/104/6 110/109/6 111/107/6
f 104/105/6 103/106/6 108/111/6 109/110/6
f 111/107/7 110/109/7 115/114/7 116/112/7
f 109/110/7 108/111/7 113/116/7 114/115/7
f 116/112/8 115/114/8 120/119/8 121/117/8
f 114/115/8 113/116/8 118/121/8 119/120/8
f 121/117/9 120/119/9 125/124/9 126/122/9
f 119/120/9 118/121/9 123/126/9 124/125/9
f 126/122/11 125/124/11 130/129/11 131/127/11
f 124/125/11 123/126/11 128/131/11 129/130/11
f 131/127/12 130/129/12 133/134/12 132/132/12
f 129/130/12 128/131/12 135/136/12 134/135/12
usemtl flag
f 25/1/1 2/2/1 4/3/1 26/4/1
f 26/4/2 4/3/2 6/5/2 27/6/2
f 27/6/3 6/5/3 8/7/3 28/8/3
f 29/9/4 10/10/4 12/11/4 30/12/4
f 30/12/5 12/11/5 14/13/5 31/14/5
f 31/14/6 14/13/6 16/15/6 32/16/6
f 32/16/7 16/15/7 18/17/7 33/18/7
f 33/18/8 18/17/8 20/19/8 34/20/8
f 34/20/9 20/19/9 22/21/9 35/22/9
f 35/22/11 22/21/11 24/25/11 36/26/11
f 36/26/12 24/25/12 2/27/12 25/28/12
f 44/9/10 43/54/10 57/55/10 64/23/10
f 10/10/14 29/9/14 50/9/14 58/10/14
f 58/10/6 50/9/6 49/9/6 59/10/6
f 59/10/6 49/9/6 48/9/6 60/56/6
f 60/56/6 48/9/6 47/57/6 61/10/6
f 61/10/6 47/57/6 46/58/6 62/10/6
f 62/10/6 46/58/6 45/57/6 63/10/6
f 63/10/6 45/57/6 44/9/6 64/10/6
f 8/24/15 10/23/15 58/23/15 51/24/15
f 51/24/16 58/23/16 59/23/16 52/24/16
f 52/24/17 59/23/17 60/23/17 53/24/17
f 53/24/18 60/23/18 61/23/18 54/24/18
f 54/24/19 61/23/19 62/23/19 55/24/19
f 55/24/20 62/23/20 63/59/20 56/24/20
f 56/24/21 63/59/21 64/23/21 57/24/21
f 28/8/22 8/7/22 51/7/22 37/8/22
f 37/8/1 51/7/1 52/7/1 38/60/1
f 38/60/1 52/7/1 53/7/1 39/60/1
f 39/60/1 53/7/1 54/55/1 40/61/1
f 40/61/1 54/55/1 55/55/1 41/54/1
f 41/54/1 55/55/1 56/55/1 42/54/1
f 42/54/1 56/55/1 57/55/1 43/54/1
f 29/9/23 28/8/23 37/8/23 50/9/23
f 50/9/24 37/8/24 38/60/24 49/9/24
f 49/9/25 38/60/25 39/60/25 48/9/25
f 48/9/26 39/60/26 40/61/26 47/57/26
f 47/57/27 40/61/27 41/54/27 46/58/27
f 46/58/28 41/54/28 42/54/28 45/57/28
f 45/57/29 42/54/29 43/54/29 44/9/29
usemtl black
f 1/29/13 3/30/13 5/31/13 7/32/13 9/33/13 11/34/13 13/35/13 15/36/13 17/37/13 19/38/13 21/39/13 23/40/13
f 1/72/1 132/73/1 81/74/1 3/75/1
f 133/76/1 134/78/1 79/79/1 80/77/1
f 135/80/1 136/53/1 77/52/1 78/81/1
f 3/75/2 81/74/2 86/82/2 5/83/2
f 80/77/2 79/79/2 84/85/2 85/84/2
f 78/81/2 77/52/2 82/51/2 83/86/2
f 5/83/3 86/82/3 91/87/3 7/88/3
f 85/84/3 84/85/3 89/90/3 90/89/3
f 83/86/3 82/51/3 87/50/3 88/91/3
f 7/88/10 91/87/10 96/92/10 9/93/10
f 90/89/10 89/90/10 94/95/10 95/94/10
f 88/91/10 87/50/10 92/49/10 93/96/10
f 9/93/4 96/92/4 101/97/4 11/98/4
f 95/94/4 94/95/4 99/100/4 100/99/4
f 93/96/4 92/49/4 97/48/4 98/101/4
f 11/98/5 101/97/5 106/102/5 13/103/5
f 100/99/5 99/100/5 104/105/5 105/104/5
f 98/101/5 97/48/5 102/47/5 103/106/5
f 13/103/6 106/102/6 111/107/6 15/108/6
f 105/104/6 104/105/6 109/110/6 110/109/6
f 103/106/6 102/47/6 107/46/6 108/111/6
f 15/108/7 111/107/7 116/112/7 17/113/7
f 110/109/7 109/110/7 114/115/7 115/114/7
f 108/111/7 107/46/7 112/45/7 113/116/7
f 17/113/8 116/112/8 121/117/8 19/118/8
f 115/114/8 114/115/8 119/120/8 120/119/8
f 113/116/8 112/45/8 117/44/8 118/121/8
f 19/118/9 121/117/9 126/122/9 21/123/9
f 120/119/9 119/120/9 124/125/9 125/124/9
f 118/121/9 117/44/9 122/43/9 123/126/9
f 21/123/11 126/122/11 131/127/11 23/128/11
f 125/124/11 124/125/11 129/130/11 130/129/11
f 123/126/11 122/43/11 127/41/11 128/131/11
f 23/128/12 131/127/12 132/132/12 1/133/12
f 130/129/12 129/130/12 134/135/12 133/134/12
f 128/131/12 127/41/12 136/42/12 135/136/12
